<svg width="18" height="18" viewBox="0 0 18 18" fill="none" xmlns="http://www.w3.org/2000/svg">
<path d="M15.7496 15.375C15.7496 15.996 15.2456 16.5 14.6246 16.5C14.0036 16.5 13.4996 15.996 13.4996 15.375C13.4996 14.754 14.0036 14.25 14.6246 14.25C15.2456 14.25 15.7496 14.754 15.7496 15.375ZM1.12465 2.25C0.503648 2.25 -0.000352057 2.754 -0.000352057 3.375C-0.000352057 3.996 0.503648 4.5 1.12465 4.5C1.74565 4.5 2.24965 3.996 2.24965 3.375C2.24965 2.754 1.74565 2.25 1.12465 2.25ZM4.87465 0C4.25365 0 3.74965 0.504 3.74965 1.125C3.74965 1.746 4.25365 2.25 4.87465 2.25C5.49565 2.25 5.99965 1.746 5.99965 1.125C5.99965 0.504 5.49565 0 4.87465 0ZM17.2496 6.7485C17.5646 6.7485 17.8466 6.94575 17.9546 7.24125C18.0626 7.53675 17.9741 7.869 17.7334 8.0715L15.9596 9.51675L16.6931 11.7517C16.7936 12.054 16.6916 12.387 16.4389 12.582C16.1854 12.7762 15.8381 12.7898 15.5719 12.6165L13.5071 11.2718L11.4761 12.6315C11.3494 12.7162 11.2039 12.7582 11.0584 12.7582C10.9001 12.7582 10.7411 12.7087 10.6084 12.609C10.3534 12.4185 10.2469 12.087 10.3429 11.784L11.0479 9.52275L9.26515 8.07225C9.02515 7.869 8.9374 7.5375 9.04615 7.242C9.1549 6.94725 9.43615 6.75075 9.7504 6.75075H11.9996L12.7961 4.61175C12.9056 4.3185 13.1861 4.1235 13.4989 4.1235C13.8116 4.1235 14.0921 4.31775 14.2016 4.61175L14.9981 6.75075H17.2481L17.2496 6.7485ZM5.7364 6.9015C5.92315 6.70275 6.11365 6.50625 6.3094 6.30975C8.26765 4.3515 10.4209 2.838 12.3724 2.049C14.0666 1.3635 15.4466 1.32225 16.0616 1.93725C16.6684 2.544 16.5094 3.7125 16.3609 4.35525C16.2671 4.75875 16.5184 5.1615 16.9226 5.25525C17.3291 5.3505 17.7289 5.097 17.8226 4.6935C18.3071 2.601 17.7094 1.4625 17.1229 0.87675C16.0361 -0.21075 14.1491 -0.28875 11.8106 0.6585C9.6769 1.521 7.34665 3.1515 5.2489 5.25C5.04115 5.457 4.8394 5.66625 4.6429 5.87625C4.3594 6.17775 4.37515 6.6525 4.67665 6.936C4.8214 7.07175 5.0059 7.13925 5.18965 7.13925C5.3899 7.13925 5.5894 7.05975 5.7364 6.90225V6.9015ZM9.91315 15.1987C10.2469 14.9527 10.3181 14.4833 10.0721 14.1503C9.8269 13.8173 9.35665 13.746 9.02365 13.9905C5.96665 16.242 2.9869 17.1127 1.9354 16.0627C1.49065 15.618 1.4644 14.8733 1.52065 14.3273C1.5634 13.9148 1.2634 13.5465 0.851648 13.5037C0.440648 13.4677 0.0708979 13.761 0.0288979 14.1735C-0.099352 15.4215 0.193148 16.4415 0.875648 17.124C1.4584 17.7068 2.27515 17.9902 3.2569 17.9902C5.06365 17.9902 7.42765 17.0295 9.91315 15.1995V15.1987ZM5.5669 9.648L4.14265 9.123L3.5989 7.68C3.4879 7.3485 3.1294 7.16925 2.7979 7.28025C2.60965 7.34325 2.46115 7.491 2.39815 7.68L1.8604 9.1095L0.431648 9.648C0.100148 9.759 -0.079102 10.1175 0.0318979 10.449C0.0948979 10.6372 0.242648 10.7858 0.431648 10.8488L1.8739 11.3918L2.39815 12.8153C2.46115 13.0035 2.6089 13.152 2.7979 13.215C3.1294 13.326 3.4879 13.1467 3.5989 12.8153L4.12915 11.3783L5.56765 10.8488C5.7559 10.7858 5.9044 10.638 5.9674 10.449C6.0784 10.1175 5.8984 9.759 5.5669 9.648Z" fill="#FFB900"/>
</svg>
