<?xml version="1.0" standalone="no"?>
<!DOCTYPE svg PUBLIC "-//W3C//DTD SVG 20010904//EN"
 "http://www.w3.org/TR/2001/REC-SVG-20010904/DTD/svg10.dtd">
<svg version="1.0" xmlns="http://www.w3.org/2000/svg"
 width="512.000000pt" height="512.000000pt" viewBox="0 0 512.000000 512.000000"
 preserveAspectRatio="xMidYMid meet">

<g transform="translate(0.000000,512.000000) scale(0.100000,-0.100000)"
fill="#000000" stroke="none">
<path d="M4030 4836 c-170 -22 -470 -89 -470 -105 0 -3 267 -273 593 -599
l594 -594 31 119 c65 244 77 341 77 633 0 288 -3 306 -58 393 -37 59 -100 109
-175 138 -51 20 -79 22 -272 25 -138 2 -253 -2 -320 -10z"/>
<path d="M3195 3939 c-176 -40 -338 -163 -420 -320 -223 -424 75 -928 550
-930 112 -1 208 21 294 66 216 114 342 319 344 560 1 113 -14 177 -65 285 -33
69 -56 100 -122 165 -93 92 -167 136 -282 165 -83 21 -226 26 -299 9z m266
-155 c159 -47 277 -158 329 -308 99 -288 -89 -593 -392 -637 -93 -14 -193 3
-284 48 -71 34 -169 129 -206 199 -118 221 -51 490 159 635 106 73 270 99 394
63z"/>
<path d="M1560 3650 c-439 -56 -799 -354 -1061 -880 -104 -209 -181 -439 -224
-669 -23 -128 -21 -167 14 -202 49 -48 88 -41 209 36 210 135 430 236 654 301
68 19 127 39 133 45 5 5 197 301 425 657 l417 647 -56 18 c-133 42 -375 65
-511 47z"/>
<path d="M2911 1672 l-665 -428 -31 -104 c-64 -213 -147 -393 -285 -615 -71
-114 -80 -134 -76 -165 7 -48 55 -90 102 -90 47 0 264 44 379 77 211 60 471
177 644 290 346 225 546 479 633 801 26 96 36 341 19 452 -16 104 -41 210 -49
210 -4 -1 -306 -193 -671 -428z"/>
<path d="M1202 1895 c-88 -93 -86 -122 17 -229 37 -39 52 -60 43 -63 -39 -14
-89 -75 -123 -148 -49 -104 -109 -287 -116 -350 -5 -45 -2 -53 22 -75 37 -34
74 -31 238 24 203 68 291 116 323 177 l15 30 70 -65 c63 -60 73 -66 112 -66
39 0 48 5 105 63 l62 62 -353 353 -353 353 -62 -66z"/>
</g>
</svg>
